<svg width="618" height="278" viewBox="0 0 618 278" fill="none" xmlns="http://www.w3.org/2000/svg">
<path fill-rule="evenodd" clip-rule="evenodd" d="M186.25 10.5C186.25 4.97715 181.773 0.5 176.25 0.5H101.75C96.2272 0.5 91.75 4.97715 91.75 10.5V81.75C91.75 87.2728 87.2728 91.75 81.75 91.75H10.5C4.97715 91.75 0.5 96.2272 0.5 101.75V176.25C0.5 181.773 4.97715 186.25 10.5 186.25H81.75C87.2728 186.25 91.75 190.727 91.75 196.25V267.5C91.75 273.023 96.2272 277.5 101.75 277.5H176.25C181.773 277.5 186.25 273.023 186.25 267.5V196.25C186.25 190.727 190.727 186.25 196.25 186.25H267.5C273.023 186.25 277.5 181.773 277.5 176.25V101.75C277.5 96.2272 273.023 91.75 267.5 91.75H196.25C190.727 91.75 186.25 87.2728 186.25 81.75V10.5Z" fill="#58419C"/>
<path fill-rule="evenodd" clip-rule="evenodd" d="M157.378 75.6738C157.378 72.9124 155.14 70.6738 152.378 70.6738H128.066C125.304 70.6738 123.066 72.9124 123.066 75.6738V114.654C123.066 117.416 120.827 119.654 118.066 119.654H75.6738C72.9124 119.654 70.6738 121.893 70.6738 124.654V148.967C70.6738 151.728 72.9124 153.967 75.6738 153.967H118.066C120.827 153.967 123.066 156.205 123.066 158.967V204.77C123.066 207.532 125.304 209.77 128.066 209.77H152.378C155.14 209.77 157.378 207.532 157.378 204.77V158.967C157.378 156.205 159.617 153.967 162.378 153.967H204.77C207.532 153.967 209.77 151.728 209.77 148.967V124.654C209.77 121.893 207.532 119.654 204.77 119.654H162.378C159.617 119.654 157.378 117.416 157.378 114.654V75.6738Z" fill="#856BD0"/>
<path d="M321.293 124V80.3636H350.696V87.9702H330.518V98.3679H349.183V105.974H330.518V116.393H350.781V124H321.293ZM388.372 91.2727L376.93 124H366.703L355.261 91.2727H364.849L371.646 114.689H371.987L378.762 91.2727H388.372ZM406.877 124.639C403.51 124.639 400.613 123.957 398.184 122.594C395.769 121.216 393.908 119.27 392.601 116.756C391.294 114.227 390.641 111.237 390.641 107.786C390.641 104.419 391.294 101.464 392.601 98.9219C393.908 96.3793 395.748 94.3977 398.12 92.9773C400.506 91.5568 403.304 90.8466 406.515 90.8466C408.674 90.8466 410.684 91.1946 412.544 91.8906C414.419 92.5724 416.053 93.6023 417.445 94.9801C418.851 96.358 419.945 98.0909 420.726 100.179C421.507 102.253 421.898 104.682 421.898 107.466V109.959H394.263V104.334H413.354C413.354 103.027 413.07 101.869 412.502 100.861C411.934 99.8523 411.145 99.0639 410.137 98.4957C409.142 97.9134 407.985 97.6222 406.664 97.6222C405.286 97.6222 404.064 97.9418 402.999 98.581C401.948 99.206 401.124 100.051 400.527 101.116C399.931 102.168 399.625 103.339 399.611 104.632V109.98C399.611 111.599 399.909 112.999 400.506 114.178C401.117 115.357 401.976 116.266 403.084 116.905C404.192 117.544 405.506 117.864 407.026 117.864C408.034 117.864 408.958 117.722 409.796 117.438C410.634 117.153 411.351 116.727 411.948 116.159C412.544 115.591 412.999 114.895 413.311 114.071L421.706 114.625C421.28 116.642 420.407 118.403 419.086 119.909C417.779 121.401 416.088 122.565 414.015 123.403C411.955 124.227 409.576 124.639 406.877 124.639ZM427.821 124V91.2727H436.621V96.983H436.962C437.559 94.9517 438.56 93.4176 439.966 92.3807C441.373 91.3295 442.992 90.804 444.824 90.804C445.279 90.804 445.769 90.8324 446.294 90.8892C446.82 90.946 447.282 91.0241 447.679 91.1236V99.1776C447.253 99.0497 446.664 98.9361 445.911 98.8366C445.158 98.7372 444.469 98.6875 443.844 98.6875C442.509 98.6875 441.316 98.9787 440.265 99.5611C439.228 100.129 438.404 100.925 437.793 101.947C437.196 102.97 436.898 104.149 436.898 105.484V124H427.821ZM465.593 136.955C462.653 136.955 460.131 136.55 458.029 135.74C455.941 134.945 454.279 133.858 453.043 132.48C451.808 131.102 451.005 129.554 450.636 127.835L459.031 126.706C459.286 127.359 459.691 127.97 460.245 128.538C460.799 129.107 461.531 129.561 462.44 129.902C463.363 130.257 464.485 130.435 465.806 130.435C467.781 130.435 469.407 129.952 470.685 128.986C471.978 128.034 472.624 126.436 472.624 124.192V118.205H472.241C471.843 119.114 471.246 119.973 470.451 120.783C469.656 121.592 468.633 122.253 467.383 122.764C466.133 123.276 464.641 123.531 462.908 123.531C460.451 123.531 458.214 122.963 456.197 121.827C454.194 120.676 452.596 118.922 451.403 116.564C450.224 114.192 449.634 111.195 449.634 107.572C449.634 103.865 450.238 100.768 451.445 98.2827C452.653 95.7969 454.258 93.9361 456.261 92.7003C458.278 91.4645 460.487 90.8466 462.887 90.8466C464.719 90.8466 466.254 91.1591 467.489 91.7841C468.725 92.3949 469.719 93.1619 470.472 94.0852C471.239 94.9943 471.829 95.8892 472.241 96.7699H472.582V91.2727H481.594V124.32C481.594 127.104 480.913 129.433 479.549 131.308C478.185 133.183 476.296 134.589 473.881 135.527C471.481 136.479 468.718 136.955 465.593 136.955ZM465.785 116.713C467.248 116.713 468.484 116.351 469.492 115.626C470.515 114.888 471.296 113.837 471.836 112.473C472.39 111.095 472.667 109.447 472.667 107.53C472.667 105.612 472.397 103.95 471.857 102.544C471.317 101.124 470.536 100.023 469.513 99.2415C468.491 98.4602 467.248 98.0696 465.785 98.0696C464.293 98.0696 463.036 98.4744 462.013 99.2841C460.991 100.08 460.217 101.187 459.691 102.608C459.165 104.028 458.903 105.669 458.903 107.53C458.903 109.419 459.165 111.053 459.691 112.43C460.231 113.794 461.005 114.852 462.013 115.605C463.036 116.344 464.293 116.713 465.785 116.713ZM488.817 124V91.2727H497.617V96.983H497.958C498.555 94.9517 499.556 93.4176 500.962 92.3807C502.369 91.3295 503.988 90.804 505.82 90.804C506.275 90.804 506.765 90.8324 507.29 90.8892C507.816 90.946 508.278 91.0241 508.675 91.1236V99.1776C508.249 99.0497 507.66 98.9361 506.907 98.8366C506.154 98.7372 505.465 98.6875 504.84 98.6875C503.505 98.6875 502.312 98.9787 501.261 99.5611C500.224 100.129 499.4 100.925 498.789 101.947C498.192 102.97 497.894 104.149 497.894 105.484V124H488.817ZM526.76 124.639C523.393 124.639 520.495 123.957 518.066 122.594C515.652 121.216 513.791 119.27 512.484 116.756C511.177 114.227 510.524 111.237 510.524 107.786C510.524 104.419 511.177 101.464 512.484 98.9219C513.791 96.3793 515.63 94.3977 518.002 92.9773C520.389 91.5568 523.187 90.8466 526.397 90.8466C528.556 90.8466 530.566 91.1946 532.427 91.8906C534.302 92.5724 535.936 93.6023 537.328 94.9801C538.734 96.358 539.828 98.0909 540.609 100.179C541.39 102.253 541.781 104.682 541.781 107.466V109.959H514.146V104.334H533.237C533.237 103.027 532.953 101.869 532.385 100.861C531.816 99.8523 531.028 99.0639 530.02 98.4957C529.025 97.9134 527.868 97.6222 526.547 97.6222C525.169 97.6222 523.947 97.9418 522.882 98.581C521.831 99.206 521.007 100.051 520.41 101.116C519.814 102.168 519.508 103.339 519.494 104.632V109.98C519.494 111.599 519.792 112.999 520.389 114.178C521 115.357 521.859 116.266 522.967 116.905C524.075 117.544 525.389 117.864 526.909 117.864C527.917 117.864 528.841 117.722 529.679 117.438C530.517 117.153 531.234 116.727 531.831 116.159C532.427 115.591 532.882 114.895 533.194 114.071L541.589 114.625C541.163 116.642 540.289 118.403 538.968 119.909C537.662 121.401 535.971 122.565 533.897 123.403C531.838 124.227 529.458 124.639 526.76 124.639ZM562.619 124.639C559.252 124.639 556.355 123.957 553.926 122.594C551.511 121.216 549.65 119.27 548.343 116.756C547.037 114.227 546.383 111.237 546.383 107.786C546.383 104.419 547.037 101.464 548.343 98.9219C549.65 96.3793 551.49 94.3977 553.862 92.9773C556.248 91.5568 559.047 90.8466 562.257 90.8466C564.416 90.8466 566.426 91.1946 568.287 91.8906C570.162 92.5724 571.795 93.6023 573.187 94.9801C574.593 96.358 575.687 98.0909 576.468 100.179C577.25 102.253 577.64 104.682 577.64 107.466V109.959H550.005V104.334H569.096C569.096 103.027 568.812 101.869 568.244 100.861C567.676 99.8523 566.887 99.0639 565.879 98.4957C564.885 97.9134 563.727 97.6222 562.406 97.6222C561.028 97.6222 559.806 97.9418 558.741 98.581C557.69 99.206 556.866 100.051 556.27 101.116C555.673 102.168 555.368 103.339 555.353 104.632V109.98C555.353 111.599 555.652 112.999 556.248 114.178C556.859 115.357 557.718 116.266 558.826 116.905C559.934 117.544 561.248 117.864 562.768 117.864C563.777 117.864 564.7 117.722 565.538 117.438C566.376 117.153 567.093 116.727 567.69 116.159C568.287 115.591 568.741 114.895 569.054 114.071L577.449 114.625C577.022 116.642 576.149 118.403 574.828 119.909C573.521 121.401 571.831 122.565 569.757 123.403C567.697 124.227 565.318 124.639 562.619 124.639ZM592.64 105.08V124H583.564V91.2727H592.214V97.0469H592.598C593.322 95.1435 594.537 93.6378 596.241 92.5298C597.946 91.4077 600.012 90.8466 602.441 90.8466C604.714 90.8466 606.696 91.3438 608.386 92.3381C610.076 93.3324 611.39 94.7528 612.328 96.5994C613.265 98.4318 613.734 100.619 613.734 103.162V124H604.657V104.781C604.672 102.778 604.16 101.216 603.123 100.094C602.086 98.9574 600.659 98.3892 598.841 98.3892C597.619 98.3892 596.539 98.652 595.602 99.1776C594.679 99.7031 593.954 100.47 593.429 101.479C592.917 102.473 592.654 103.673 592.64 105.08Z" fill="#58419C"/>
<path d="M359.794 168.641H350.462C350.291 167.433 349.943 166.361 349.418 165.423C348.892 164.472 348.217 163.662 347.393 162.994C346.57 162.327 345.618 161.815 344.538 161.46C343.473 161.105 342.315 160.928 341.065 160.928C338.807 160.928 336.839 161.489 335.163 162.611C333.487 163.719 332.188 165.338 331.264 167.469C330.341 169.585 329.879 172.156 329.879 175.182C329.879 178.293 330.341 180.906 331.264 183.023C332.202 185.139 333.509 186.737 335.185 187.817C336.861 188.896 338.8 189.436 341.001 189.436C342.237 189.436 343.381 189.273 344.432 188.946C345.497 188.619 346.442 188.143 347.266 187.518C348.089 186.879 348.771 186.105 349.311 185.196C349.865 184.287 350.249 183.25 350.462 182.085L359.794 182.128C359.553 184.131 358.949 186.062 357.983 187.923C357.031 189.77 355.746 191.425 354.126 192.888C352.521 194.337 350.604 195.487 348.374 196.339C346.158 197.178 343.651 197.597 340.852 197.597C336.96 197.597 333.48 196.716 330.412 194.955C327.358 193.193 324.943 190.643 323.168 187.305C321.406 183.967 320.526 179.926 320.526 175.182C320.526 170.423 321.42 166.375 323.21 163.037C325 159.699 327.429 157.156 330.497 155.409C333.565 153.648 337.017 152.767 340.852 152.767C343.381 152.767 345.724 153.122 347.884 153.832C350.057 154.543 351.982 155.58 353.658 156.943C355.334 158.293 356.697 159.947 357.749 161.908C358.814 163.868 359.496 166.112 359.794 168.641ZM375.316 153.364V197H366.239V153.364H375.316ZM382.587 197V164.273H391.664V197H382.587ZM387.147 160.054C385.797 160.054 384.64 159.607 383.674 158.712C382.722 157.803 382.246 156.716 382.246 155.452C382.246 154.202 382.722 153.129 383.674 152.234C384.64 151.325 385.797 150.871 387.147 150.871C388.496 150.871 389.647 151.325 390.598 152.234C391.564 153.129 392.047 154.202 392.047 155.452C392.047 156.716 391.564 157.803 390.598 158.712C389.647 159.607 388.496 160.054 387.147 160.054ZM408.011 178.08V197H398.935V164.273H407.585V170.047H407.969C408.693 168.143 409.908 166.638 411.612 165.53C413.317 164.408 415.384 163.847 417.812 163.847C420.085 163.847 422.067 164.344 423.757 165.338C425.447 166.332 426.761 167.753 427.699 169.599C428.636 171.432 429.105 173.619 429.105 176.162V197H420.028V177.781C420.043 175.778 419.531 174.216 418.494 173.094C417.457 171.957 416.03 171.389 414.212 171.389C412.99 171.389 411.911 171.652 410.973 172.178C410.05 172.703 409.325 173.47 408.8 174.479C408.288 175.473 408.026 176.673 408.011 178.08ZM436.259 197V164.273H445.336V197H436.259ZM440.819 160.054C439.469 160.054 438.311 159.607 437.346 158.712C436.394 157.803 435.918 156.716 435.918 155.452C435.918 154.202 436.394 153.129 437.346 152.234C438.311 151.325 439.469 150.871 440.819 150.871C442.168 150.871 443.319 151.325 444.27 152.234C445.236 153.129 445.719 154.202 445.719 155.452C445.719 156.716 445.236 157.803 444.27 158.712C443.319 159.607 442.168 160.054 440.819 160.054ZM467.393 197.639C464.041 197.639 461.158 196.929 458.743 195.509C456.342 194.074 454.496 192.085 453.203 189.543C451.925 187 451.286 184.074 451.286 180.764C451.286 177.412 451.932 174.472 453.224 171.943C454.531 169.401 456.385 167.419 458.786 165.999C461.186 164.564 464.041 163.847 467.351 163.847C470.206 163.847 472.706 164.365 474.851 165.402C476.996 166.439 478.693 167.895 479.943 169.77C481.193 171.645 481.882 173.847 482.01 176.375H473.445C473.203 174.741 472.564 173.428 471.527 172.433C470.504 171.425 469.162 170.92 467.5 170.92C466.094 170.92 464.865 171.304 463.814 172.071C462.777 172.824 461.967 173.925 461.385 175.374C460.803 176.822 460.511 178.577 460.511 180.636C460.511 182.724 460.795 184.5 461.364 185.963C461.946 187.426 462.763 188.541 463.814 189.308C464.865 190.075 466.094 190.459 467.5 190.459C468.537 190.459 469.467 190.246 470.291 189.82C471.129 189.393 471.818 188.776 472.358 187.966C472.912 187.142 473.274 186.155 473.445 185.004H482.01C481.868 187.504 481.186 189.706 479.964 191.609C478.757 193.499 477.088 194.976 474.957 196.041C472.827 197.107 470.305 197.639 467.393 197.639Z" fill="#856BD0"/>
</svg>
